<?xml version="1.0" encoding="UTF-8"?>
<!-- Created with Inkscape (http://www.inkscape.org/) -->
<svg width="465.82" height="181.77" version="1.1" viewBox="0 0 465.82 181.77" xmlns="http://www.w3.org/2000/svg">
 <g transform="translate(-21.634 -64.939)">
  <path d="m60.239 211.27c-30.698-30.754-35.525-35.766-36.525-37.931-2.3696-5.1291-2.7205-10.313-1.0196-15.061 0.56917-1.5889 7.4752-16.295 15.347-32.68l14.312-29.791 29.905-14.95c32.54-16.268 32.333-16.184 39.125-15.828 3.2218 0.1691 4.2548 0.439 7.2306 1.8891 3.386 1.65 4.3503 2.5688 39.027 37.184l35.556 35.493 0.12512 36.119c0.0688 19.865 0.01 36.769-0.13126 37.563l-0.25636 1.4444h-31.515l-0.01688 10.778c-9e-3 5.9278-0.0514 13.118-0.0935 15.978l-0.0766 5.2006-75.619 0.0279-35.373-35.437zm15.997 14.674c-10.91-10.939-20.197-20.589-20.638-21.444-0.64698-1.2548-0.83652-1.3928-0.98047-0.71342-0.13264 0.62595 5.1092 6.1307 20.42 21.444 11.329 11.331 20.697 20.602 20.816 20.602s-8.7087-8.95-19.618-19.889zm93.849 4.3333v-15.111h-103.77l30.212 30.222h73.56zm-15.78-31.117c-8.3098-8.3145-34.159-34.164-57.442-57.444-23.283-23.28-42.333-42.626-42.333-42.991 0-0.36552 6.35 5.6342 14.111 13.333l14.111 13.997-13.444-13.558c-7.3944-7.457-13.444-13.707-13.444-13.889 0-0.18185 22.358-0.33064 49.684-0.33064 54.345 0 52.864-0.06717 56.752 2.5751 0.97314 0.66148 2.0731 1.376 2.4444 1.5878s-6.5239-6.8382-15.323-15.667c-8.7987-8.8285-16.08-16.052-16.18-16.052-0.31321 0 1.1225 1.4759 13.148 13.517 6.4329 6.441 11.696 11.877 11.696 12.08 0 0.20296-5.75-5.3513-12.778-12.343-7.0278-6.9915-13.778-13.341-15-14.11-4.5382-2.8552-9.839-3.7594-14.889-2.5397-1.4161 0.34204-14.185 6.4626-30.351 14.549l-27.906 13.958 49.462 0.22222c38.142 0.17136 49.748 0.34906 50.71 0.77644 0.68619 0.30481 1.1244 0.35481 0.97377 0.11111-0.44787-0.72468 0.19414-0.50467 1.164 0.39888 1.3492 1.2569 0.42748 1.4363-2.5766 0.50131-2.5528-0.79451-5.0433-0.83582-51.967-0.86182-33.819-0.01875-49.077 0.11579-48.619 0.42869 0.51479 0.35212 0.37072 0.42695-0.63239 0.32848-0.71448-0.07014-1.3495-0.38252-1.4111-0.69419-0.06163-0.31167-0.01236-0.36752 0.10953-0.12413 0.13844 0.27648 0.44102 0.23896 0.80637-0.1 0.32164-0.29839 0.41322-0.65044 0.20352-0.78234-0.2097-0.13189 0.26244-0.56913 1.0492-0.97163 17.789-9.1007 57.365-28.43 58.622-28.631 0.93352-0.14928 1.6973-0.4246 1.6973-0.61181 0-1.1389-6.9632 2.0253-33.505 15.225-16.35 8.1313-30 15.048-30.333 15.372-0.33363 0.32301-0.60354 1.023-0.5998 1.5556 0.0056 0.78809 0.08697 0.8442 0.43764 0.30159 0.27992-0.43315 0.47112 16.77 0.54584 49.111l0.115 49.778 0.22513-49.333c0.12382-27.133 0.37697-48.833 0.56256-48.222 0.18558 0.61111 0.38558 23.611 0.44444 51.111 0.11039 51.577 0.12139 51.906 1.7886 53.556 0.30204 0.29885 0.3361 0.15324 0.10396-0.44444-1.515-3.9006-1.5494-5.1073-1.5564-54.582-0.0046-32.425 0.14222-48.712 0.4375-48.529 0.29193 0.18043 0.44444 17.034 0.44444 49.115 0 34.47 0.14704 49.534 0.49972 51.196 0.74928 3.5314 2.3816 6.3867 5.4475 9.5288l2.7577 2.8264 103.96 0.21667-103.56 0.45556 104.44 0.21666zm16.632 14.912c-1.4278-1.5853-31.074-31.081-31.074-30.917 0 0.27232 30.8 31.122 31.072 31.122 0.10316 0 0.10423-0.0925 2e-3 -0.20562zm22.843-0.57122c-3.9567-0.0736-10.557-0.0737-14.667-3.1e-4 -4.11 0.0734-0.87267 0.13362 7.194 0.13379 8.0667 1.7e-4 11.429-0.0599 7.4727-0.13348zm6.9718-37.796v-36.351l-17.778-17.76c-9.7781-9.7682-18.028-17.836-18.333-17.928-0.30519-0.0922-0.95549-0.53066-1.4451-0.97432-0.48961-0.44365-2.0896-1.3682-3.5556-2.0545l-2.6654-1.2479-99.556-0.23518 112.89 112.9h30.446zm1.6665-17.094c-0.0667-9.8389-0.12134-1.7889-0.12134 17.889 0 19.678 0.0546 27.728 0.12134 17.889 0.0667-9.8389 0.0667-25.939 0-35.778zm-149.69 40.556c-0.19588-1.3444-0.37074-23.983-0.38859-50.307-0.02418-35.669-0.16317-47.943-0.54556-48.18-0.30238-0.18688-0.39305-0.12286-0.22078 0.15589 0.38423 0.6217-0.13567 1.951-0.64092 1.6387-0.21603-0.13352-0.26108 0.10044-0.10012 0.5199 0.21428 0.55839 0.135 0.66522-0.29598 0.39886-0.3861-0.23862-0.48234-0.1918-0.2797 0.13608 0.39088 0.63244-1.4745 5.0421-1.9964 4.7195-0.21296-0.13162-0.25551 0.10389-0.09455 0.52335 0.21428 0.55839 0.135 0.66522-0.29598 0.39886-0.37385-0.23105-0.48197-0.19121-0.29631 0.1092 0.16078 0.26016 0.16385 0.80783 0.0068 1.217-0.2305 0.60066-0.36732 0.62981-0.71004 0.15122-0.31753-0.44342-0.36146-0.3968-0.17432 0.18496 0.3292 1.0233-0.13419 2.1834-0.72603 1.8177-0.26381-0.16304-0.33553-0.0763-0.16504 0.1995 0.41678 0.67438-3.7233 9.4775-4.292 9.126-0.24968-0.1543-0.32051-0.0646-0.15742 0.19926 0.37436 0.60572-0.60377 2.821-1.108 2.5094-0.2059-0.12726-0.24267 0.11182-0.0817 0.53129 0.19723 0.51396 0.12476 0.65888-0.22222 0.44444-0.34698-0.21445-0.41945-0.0695-0.22222 0.44444 0.21428 0.5584 0.135 0.66522-0.29598 0.39886-0.4021-0.24851-0.48289-0.19269-0.25494 0.17614 0.44269 0.71629-0.61463 3.2216-1.2055 2.8564-0.25768-0.15925-0.32938-0.0714-0.16233 0.19888 0.36814 0.59567-1.5101 4.5854-2.0125 4.2749-0.1988-0.12286-0.22975 0.11982-0.0688 0.53928 0.19722 0.51396 0.12476 0.65889-0.22223 0.44444-0.34698-0.21444-0.41945-0.0695-0.22222 0.44445 0.19723 0.51396 0.12476 0.65889-0.22222 0.44444-0.34699-0.21445-0.41945-0.0695-0.22222 0.44445 0.21427 0.55839 0.135 0.66522-0.29599 0.39886-0.38609-0.23863-0.48234-0.1918-0.2797 0.13607 0.42686 0.69068-1.4949 5.0294-2.0702 4.6739-0.25353-0.15669-0.32941-0.072-0.16863 0.18812 0.16079 0.26015 0.16386 0.80783 7e-3 1.217-0.23049 0.60067-0.36731 0.62981-0.71003 0.15123-0.31671-0.44227-0.36047-0.39396-0.1723 0.19022 0.31975 0.99271-0.59477 3.0583-1.1909 2.6899-0.24647-0.15232-0.31468-0.061-0.15158 0.20286 0.40628 0.65738-0.62515 2.8078-1.1818 2.4638-0.26756-0.16536-0.30894-0.0517-0.10271 0.28194 0.40758 0.65948-1.5005 4.9895-2.0492 4.6504-0.204-0.12608-0.23921 0.11396-0.0783 0.53343 0.21428 0.55839 0.135 0.66521-0.29598 0.39885-0.36315-0.22444-0.48168-0.19073-0.30942 0.088 0.31848 0.5153-1.0132 4.1924-1.4266 3.9395-0.14894-0.0911-0.34328 0.56448-0.43187 1.4569-0.36554 3.6822-0.11534 11.808 0.34962 11.355 0.35792-0.34892 2.683 4.3804 2.3986 4.8788-0.15685 0.27484-0.11383 0.34375 0.0956 0.15312 0.49001-0.44597 6.9169 5.9157 6.5599 6.4934-0.14787 0.23925-0.0751 0.31525 0.16176 0.16888 0.23684-0.14638 4.7085 4.0152 9.9371 9.2481s9.5406 9.4717 9.5822 9.4197c0.04164-0.052-0.08456-1.1945-0.28044-2.539zm-2.1988 1.18c0-0.0843-0.45-0.53434-1-1l-1-0.84667 0.84666 1c0.79565 0.93976 1.1533 1.2023 1.1533 0.84667zm3.4147-0.81889c-0.14188-0.35454-0.24719-0.24923-0.26852 0.26852-0.01929 0.46852 0.08574 0.73102 0.23343 0.58334 0.14768-0.14769 0.16347-0.53103 0.03507-0.85186zm-5.6369-1.4178c0-0.0923-0.35-0.44229-0.77778-0.77778-0.70492-0.55283-0.72064-0.53711-0.1678 0.1678 0.58061 0.74034 0.94558 0.97577 0.94558 0.60998zm-6.2222-6.2222c0-0.0923-0.35-0.44229-0.77778-0.77778-0.70491-0.55283-0.72063-0.53711-0.1678 0.1678 0.58061 0.74034 0.94558 0.97577 0.94558 0.60998zm-4.8889-4.8889c0-0.0923-0.35-0.44229-0.77778-0.77778-0.70492-0.55283-0.72064-0.53711-0.1678 0.1678 0.5806 0.74034 0.94558 0.97577 0.94558 0.60998zm-1.7778-1.7633c0-0.0843-0.45-0.53434-1-1l-1-0.84667 0.84666 1c0.79565 0.93975 1.1533 1.2023 1.1533 0.84667zm75.996-30.847c-15.52-15.583-28.31-28.275-28.421-28.204-0.22065 0.14016 56.06 56.538 56.42 56.538 0.1208 0-12.479-12.75-27.999-28.333zm-89.008 8.6667c-0.0986-0.79445-0.17925-0.14445-0.17925 1.4444s0.0807 2.2389 0.17925 1.4444c0.0986-0.79445 0.0986-2.0944 0-2.8889zm180.12-23.168c0-0.0923-0.35-0.44228-0.77778-0.77777-0.70492-0.55283-0.72064-0.53711-0.16781 0.1678 0.58061 0.74033 0.94559 0.97577 0.94559 0.60997zm-160.27-19.189c0.15178-0.39552 0.07727-0.57392-0.17467-0.41821-0.24164 0.14934-0.43935 0.45973-0.43935 0.68975 0 0.6393 0.31856 0.49842 0.61403-0.27154zm90.055-50.641c-0.70487-0.84931-4.7735-3.1501-6.2246-3.52-0.61111-0.15577 0.42393 0.51677 2.3001 1.4945 1.8762 0.97776 3.538 1.9828 3.6929 2.2335 0.15493 0.25069 0.39438 0.4558 0.5321 0.4558 0.13773 0 3e-3 -0.29873-0.30052-0.66385zm-7.8828-4.0721c-0.3009-0.12174-0.9009-0.12915-1.3333-0.0164-0.43243 0.11269-0.18624 0.2123 0.5471 0.22135 0.73333 9e-3 1.0871-0.0831 0.78623-0.20488zm232.73 134.18c-21.401-21.45-39.806-40.2-40.9-41.667-2.418-3.2427-4.8357-7.0416-4.8357-7.598 0-0.22499-0.52712-1.3993-1.1714-2.6095-0.64426-1.2102-1.7943-4.0086-2.5556-6.2187l-1.3842-4.0182v-12.222c0-12.19 3e-3 -12.232 1.2443-16 1.4692-4.4604 5.7967-13.392 7.4202-15.315 0.62787-0.74356 1.6922-2.0977 2.3651-3.0092 3.641-4.9318 13.932-13.097 18.081-14.346 0.61111-0.18392 2.0616-0.81211 3.2233-1.396s4.4252-1.658 7.2523-2.3869c4.7941-1.2361 5.6896-1.3253 13.302-1.3253s8.5082 0.0892 13.302 1.3253c2.8271 0.72893 6.0906 1.803 7.2523 2.3869s2.6122 1.2089 3.2233 1.3889c2.053 0.60489 10.758 6.5327 12.571 8.5607 0.78836 0.88168 0.80294 0.87874 2.2222-0.44857 0.78576-0.73484 1.9286-1.6488 2.5398-2.031s1.8937-1.2972 2.8502-2.0333c1.8505-1.4242 3.7812-2.6115 5.5942-3.4403 4.9961-2.284 7.1122-3.1159 10.731-4.2191 4.0639-1.2388 4.3884-1.267 14.38-1.2531 10.164 0.0142 10.248 0.0221 14.667 1.3936 9.5519 2.9644 16.161 6.7894 22.821 13.207 3.4063 3.2824 7.4999 8.5922 9.3475 12.125 3.5131 6.7165 4.4858 9.3313 6.09 16.372 1.2069 5.2966 0.66258 22.414-0.76253 23.978-0.2116 0.23222-0.38476 0.902-0.38476 1.4884s-0.27626 1.6964-0.61395 2.4667c-0.33765 0.77028-0.92125 2.1005-1.2968 2.9561-0.3756 0.85556-1.0356 2.4556-1.4665 3.5556-0.43102 1.1-0.89933 2.1-1.0407 2.2222-0.54933 0.47502-2.6931 4.0053-2.6931 4.4349 0 0.24969-0.16609 0.45398-0.36911 0.45398-0.20298 0-1.0489 0.95-1.8798 2.1111-2.0719 2.8954-2.9346 3.8339-9.2271 10.037-3.0166 2.9739-6.2594 6.2126-7.2062 7.1971-0.94676 0.98446-4.8306 4.9219-8.6308 8.7499-3.8001 3.828-6.9093 7.1726-6.9093 7.4323s-0.21868 0.47229-0.48595 0.47229c-0.6549 0-13.292 12.608-13.292 13.262 0 0.28373-0.23676 0.51587-0.52614 0.51587-0.66105 0-16.807 16.184-16.807 16.846 0 0.2679-0.25 0.49296-0.55556 0.50011-0.30555 7e-3 -3.9437 3.4072-8.0848 7.5556-4.1411 4.1484-7.7456 7.5425-8.01 7.5425-0.26446 0-17.991-17.55-39.392-39zm83.277-6.4938c-0.14323-0.23175-0.079-0.30927 0.14264-0.17226 0.22169 0.13701 2.8873-2.2225 5.9235-5.2433 3.0362-3.0208 5.7167-5.3711 5.9565-5.2229 0.23983 0.14822 0.3144 0.0726 0.16569-0.16797-0.14871-0.2406 0.81116-1.5056 2.133-2.811 1.3219-1.3054 2.2817-2.5704 2.133-2.811-0.14871-0.24061-0.0761-0.31742 0.16124-0.17071 0.23742 0.14672 3.497-2.8164 7.2436-6.5848 3.7465-3.7684 7.0141-6.7266 7.2612-6.5739 0.24716 0.15274 0.32916 0.0832 0.18223-0.15449-0.14689-0.23771 0.18075-0.91861 0.72817-1.5131 0.54743-0.59451 1.8655-2.1809 2.9291-3.5254 1.0636-1.3444 2.155-2.3778 2.4254-2.2963 0.27035 0.0815 0.34942 6e-3 0.17564-0.16781-0.3388-0.33881 1.4824-3.8882 2.6935-5.2492 0.40347-0.45344 0.68133-0.9044 0.61742-1.0021-0.0639-0.0977 0.20445-0.92673 0.59636-1.8422s0.75378-1.8646 0.80422-2.109c0.0504-0.24445 0.30702-0.84445 0.57022-1.3333 0.48742-0.9053 2.6741-8.3424 2.8096-9.5556 0.0409-0.36667 0.17271-3.8932 0.29284-7.8368 0.19254-6.321 0.0405-8.5013-0.89538-12.83-0.8472-3.9188-3.2175-9.9858-5.7251-14.653-2.6345-4.904-8.9576-11.878-14.781-16.302-2.5504-1.9377-5.4043-3.6414-5.6729-3.3867-0.29431 0.27905-1.5456-1.2487-1.3228-1.6152 0.13431-0.2211 0.0115-0.25819-0.27285-0.0824-0.72684 0.44921-2.3625-0.14489-2.0025-0.72735 0.1744-0.28218 0.0906-0.35333-0.20272-0.17206-0.27506 0.16998-1.0953 1e-3 -1.8228-0.37495-0.72751-0.3762-1.6834-0.75128-2.1242-0.83352-0.44076-0.0822-1.9014-0.47578-3.2459-0.87456-4.2256-1.2534-4.9225-1.3339-13.206-1.5264-7.8734-0.18288-8.2406-0.15091-13.417 1.1684-5.6784 1.4472-12.541 4.5027-16.498 7.345-1.239 0.89015-2.4746 1.4814-2.7457 1.3138-0.29821-0.1843-0.36766-0.10195-0.17581 0.20846 0.17442 0.28221 0.15205 0.51312-0.0497 0.51312s-1.4493 0.98994-2.7723 2.1999c-1.441 1.3178-2.6253 2.0752-2.9537 1.8889-0.30151-0.17103-1.3158-1.0206-2.2539-1.8878-2.7037-2.4994-8.7956-6.5733-11.937-7.9828-1.5839-0.71066-2.8799-1.1695-2.8799-1.0196 0 0.14988-0.35-0.0442-0.77778-0.43125-0.42777-0.38707-2.3995-1.1241-4.3816-1.6379-1.9821-0.51376-4.0821-1.0592-4.6667-1.2122s-4.6883-0.36317-9.1194-0.46713c-7.7975-0.18296-8.2273-0.14608-13.363 1.1464-2.9184 0.73448-6.7429 2.0346-8.4989 2.8893-1.756 0.85461-3.1928 1.4603-3.1928 1.346 0-0.1143-0.95 0.4458-2.1111 1.2447-1.1611 0.79887-2.1653 1.4033-2.2314 1.3431-0.28207-0.25635-6.4486 4.9962-9.1303 7.7771-5.6701 5.8798-9.0845 11.456-12.057 19.692-1.7197 4.7651-1.7392 4.9328-1.9064 16.416l-0.15165 10.416 1.4009 4.6954c0.77046 2.5825 1.8522 5.4954 2.4038 6.4732 0.55159 0.97778 1.1569 2.2752 1.3452 2.8831 0.29963 0.96744 2.2464 4.2768 2.8794 4.8947 0.1252 0.12222 0.82707 1.1216 1.5597 2.2209 0.73265 1.0993 4.6321 5.3674 8.6654 9.4847 4.0333 4.1173 7.2784 7.6827 7.2112 7.9232-0.0672 0.24049 0.0466 0.33297 0.25285 0.20551 0.20623-0.12746 14.559 13.957 31.894 31.299l31.52 31.531 21.864-21.868c12.025-12.027 21.747-22.058 21.603-22.289zm-129.1-89.407c-0.13684-0.13684-0.38536 0.10983-0.55226 0.54815-0.24119 0.63342-0.19014 0.68447 0.2488 0.2488 0.30374-0.30149 0.4403-0.66011 0.30346-0.79695zm-102.52 71.567 7e-3 -11.778h91.932v23.556h-91.946l7e-3 -11.778zm91.05 0.0716v-10.817l-90 0.0476-3e-3 10.793-3e-3 10.793h90.006zm-90.829-28.521c-0.14003-0.36491-0.25937-5.6631-0.26519-11.774l-0.01059-11.11h91.994l0.0452 3.4444c0.0248 1.8944 0.0726 7.1444 0.10605 11.667l0.0609 8.2222-45.838 0.1071c-40.303 0.0942-45.869 0.027-46.092-0.55637zm90.895-7.773c-0.0213-4.0333-0.0449-8.8833-0.0524-10.778l-0.0137-3.4444h-90l0.0613 10.556c0.0337 5.8056 0.0837 10.665 0.11111 10.8 0.0274 0.13434 20.273 0.23434 44.991 0.22222l44.941-0.022z" fill="#00f" stroke-width=".44444"/>
 </g>
</svg>
