<svg xmlns="http://www.w3.org/2000/svg" width="4000" height="5160.8"><g fill="#00f" stroke-width="1.7"><path stroke="#01f" d="M-1052 281h750" style="color:#000" transform="translate(5608 -904) scale(5.32879)"/><path stroke="#01f" stroke-width="9.1" d="M0 841h4000M0 1096h4000M0 1350h4000M0 1605h4000M0 1860h4000M0 2114h4000M0 2369h4000M0 2624h4000M0 2878h4000M0 3133h4000M0 3388h4000M0 3642h4000M0 3897h4000M0 4152h4000M0 4406h4000M0 4661h4000M0 4916h4000"/><path stroke="red" d="M-956 170v968" style="color:#000" transform="translate(5608 -904) scale(5.32879)"/></g></svg>